<?xml version="1.0" standalone="no"?>
<!DOCTYPE svg PUBLIC "-//W3C//DTD SVG 20010904//EN"
 "http://www.w3.org/TR/2001/REC-SVG-20010904/DTD/svg10.dtd">
<svg version="1.0" xmlns="http://www.w3.org/2000/svg"
 width="126.000000pt" height="126.000000pt" viewBox="0 0 126.000000 126.000000"
 preserveAspectRatio="xMidYMid meet">
<metadata>
Created by potrace 1.11, written by Peter Selinger 2001-2013
</metadata>
<g transform="translate(0.000000,126.000000) scale(0.100000,-0.100000)"
fill="#000000" stroke="none">
<path d="M525 1210 c-211 -45 -376 -192 -447 -399 -19 -55 -23 -86 -22 -181 0
-98 4 -125 26 -182 69 -184 196 -308 377 -370 79 -27 245 -32 326 -9 132 37
277 144 344 255 65 109 84 178 85 306 1 95 -3 126 -22 181 -83 241 -286 395
-532 404 -52 2 -113 0 -135 -5z m278 -155 c71 -35 159 -125 192 -197 21 -46
25 -67 25 -159 0 -101 -2 -109 -35 -175 -28 -57 -63 -98 -195 -229 l-160 -160
-160 160 c-134 134 -167 172 -196 230 -77 156 -46 335 79 457 81 79 166 109
297 105 81 -3 104 -7 153 -32z"/>
<path d="M505 933 c-47 -24 -95 -74 -121 -125 -19 -37 -24 -63 -24 -118 0 -85
15 -124 70 -184 74 -80 169 -109 266 -81 97 28 161 84 195 170 16 43 14 153
-4 196 -21 50 -82 116 -130 141 l-40 20 -19 -23 c-31 -40 -32 -67 -4 -192 14
-67 26 -132 26 -143 0 -28 -71 -78 -98 -70 -10 4 -31 20 -47 36 l-28 29 31
142 30 142 -25 39 c-29 42 -35 44 -78 21z"/>
</g>
</svg>
